HIERARCHY
ROOT Hips
{
  OFFSET -21.6994 31.6921 0
  CHANNELS 6 Xposition Yposition Zposition Zrotation Xrotation Yrotation
  JOINT Bip01_Pelvis
  {
    OFFSET 0 0 0
    CHANNELS 6 Xposition Yposition Zposition Zrotation Xrotation Yrotation
    JOINT BN_Tail_01
    {
      OFFSET -7.25226 -1.74978 0
      CHANNELS 6 Xposition Yposition Zposition Zrotation Xrotation Yrotation
      JOINT BN_Tail_02
      {
        OFFSET 15.788 0 0
        CHANNELS 6 Xposition Yposition Zposition Zrotation Xrotation Yrotation
        JOINT BN_Tail_03
        {
          OFFSET 16.0015 0 0
          CHANNELS 6 Xposition Yposition Zposition Zrotation Xrotation Yrotation
          JOINT BN_Tail_04
          {
            OFFSET 16.1689 0 0
            CHANNELS 6 Xposition Yposition Zposition Zrotation Xrotation Yrotation
            End Site
            {
              OFFSET 0 0 0
            }
          }
        }
      }
    }
    JOINT Bip01_Spine
    {
      OFFSET 6.38383 2.70859 0.585432
      CHANNELS 6 Xposition Yposition Zposition Zrotation Xrotation Yrotation
      JOINT BN_Mane_02
      {
        OFFSET 6.12662 8.45826 0
        CHANNELS 6 Xposition Yposition Zposition Zrotation Xrotation Yrotation
        End Site
        {
          OFFSET 0 0 0
        }
      }
      JOINT Bip01_R_Thigh
      {
        OFFSET -7.04074 -2.18223 -5.47025
        CHANNELS 6 Xposition Yposition Zposition Zrotation Xrotation Yrotation
        JOINT Bip01_R_Calf
        {
          OFFSET 13.6591 0 0
          CHANNELS 6 Xposition Yposition Zposition Zrotation Xrotation Yrotation
          JOINT Bip01_R_HorseLink
          {
            OFFSET 9.07516 0 0
            CHANNELS 6 Xposition Yposition Zposition Zrotation Xrotation Yrotation
            JOINT Bip01_R_Foot
            {
              OFFSET 8.13856 0 0
              CHANNELS 6 Xposition Yposition Zposition Zrotation Xrotation Yrotation
              JOINT Bip01_R_Toe0
              {
                OFFSET 3.79737 6.30086 0
                CHANNELS 6 Xposition Yposition Zposition Zrotation Xrotation Yrotation
                JOINT Bip01_R_Toe0Nub
                {
                  OFFSET 0.838764 0 0
                  CHANNELS 6 Xposition Yposition Zposition Zrotation Xrotation Yrotation
                  End Site
                  {
                    OFFSET 0 0 0
                  }
                }
              }
            }
          }
        }
      }
      JOINT Bip01_L_Thigh
      {
        OFFSET -6.18667 -2.14873 5.3508
        CHANNELS 6 Xposition Yposition Zposition Zrotation Xrotation Yrotation
        JOINT Bip01_L_Calf
        {
          OFFSET 13.6591 0 0
          CHANNELS 6 Xposition Yposition Zposition Zrotation Xrotation Yrotation
          JOINT Bip01_L_HorseLink
          {
            OFFSET 9.07515 0 0
            CHANNELS 6 Xposition Yposition Zposition Zrotation Xrotation Yrotation
            JOINT Bip01_L_Foot
            {
              OFFSET 8.13856 0 0
              CHANNELS 6 Xposition Yposition Zposition Zrotation Xrotation Yrotation
              JOINT Bip01_L_Toe0
              {
                OFFSET 3.79737 6.30086 0
                CHANNELS 6 Xposition Yposition Zposition Zrotation Xrotation Yrotation
                JOINT Bip01_L_Toe0Nub
                {
                  OFFSET 0.838764 0 0
                  CHANNELS 6 Xposition Yposition Zposition Zrotation Xrotation Yrotation
                  End Site
                  {
                    OFFSET 0 0 0
                  }
                }
              }
            }
          }
        }
      }
      JOINT Bip01_Spine1
      {
        OFFSET 12.1687 -0.0105438 0
        CHANNELS 6 Xposition Yposition Zposition Zrotation Xrotation Yrotation
        JOINT BN_Mane_R_01
        {
          OFFSET -0.157498 5.09008 -6.54008
          CHANNELS 6 Xposition Yposition Zposition Zrotation Xrotation Yrotation
          End Site
          {
            OFFSET 0 0 0
          }
        }
        JOINT BN_Mane_R_02
        {
          OFFSET -0.1575 5.09007 6.54
          CHANNELS 6 Xposition Yposition Zposition Zrotation Xrotation Yrotation
          End Site
          {
            OFFSET 0 0 0
          }
        }
        JOINT BN_Mane_01
        {
          OFFSET 8.29709 8.50414 0
          CHANNELS 6 Xposition Yposition Zposition Zrotation Xrotation Yrotation
          End Site
          {
            OFFSET 0 0 0
          }
        }
        JOINT Bip01_Spine2
        {
          OFFSET 13.2802 -0.0100708 1.51992e-005
          CHANNELS 6 Xposition Yposition Zposition Zrotation Xrotation Yrotation
          JOINT Bip01_Neck
          {
            OFFSET 12.4891 -6.66662 0
            CHANNELS 6 Xposition Yposition Zposition Zrotation Xrotation Yrotation
            JOINT Bip01_R_Clavicle
            {
              OFFSET -7.4542 -2.82621 -1.17874
              CHANNELS 6 Xposition Yposition Zposition Zrotation Xrotation Yrotation
              JOINT Bip01_R_UpperArm
              {
                OFFSET 13.2557 0 0
                CHANNELS 6 Xposition Yposition Zposition Zrotation Xrotation Yrotation
                JOINT Bip01_R_Forearm
                {
                  OFFSET 12.8897 0 0
                  CHANNELS 6 Xposition Yposition Zposition Zrotation Xrotation Yrotation
                  JOINT Bip01_R_Hand
                  {
                    OFFSET 11.2622 0 0
                    CHANNELS 6 Xposition Yposition Zposition Zrotation Xrotation Yrotation
                    JOINT Bip01_R_Finger0
                    {
                      OFFSET 3.98015 -0.208661 -0.0949803
                      CHANNELS 6 Xposition Yposition Zposition Zrotation Xrotation Yrotation
                      JOINT Bip01_R_Finger0Nub
                      {
                        OFFSET 6.57561 0 0
                        CHANNELS 6 Xposition Yposition Zposition Zrotation Xrotation Yrotation
                        End Site
                        {
                          OFFSET 0 0 0
                        }
                      }
                    }
                  }
                }
              }
            }
            JOINT Bip01_L_Clavicle
            {
              OFFSET -7.4541 -2.82679 1.17708
              CHANNELS 6 Xposition Yposition Zposition Zrotation Xrotation Yrotation
              JOINT Bip01_L_UpperArm
              {
                OFFSET 13.2558 0 0
                CHANNELS 6 Xposition Yposition Zposition Zrotation Xrotation Yrotation
                JOINT Bip01_L_Forearm
                {
                  OFFSET 12.8897 0 0
                  CHANNELS 6 Xposition Yposition Zposition Zrotation Xrotation Yrotation
                  JOINT Bip01_L_Hand
                  {
                    OFFSET 11.2622 0 0
                    CHANNELS 6 Xposition Yposition Zposition Zrotation Xrotation Yrotation
                    JOINT Bip01_L_Finger0
                    {
                      OFFSET 3.98014 -0.20866 0.0949764
                      CHANNELS 6 Xposition Yposition Zposition Zrotation Xrotation Yrotation
                      JOINT Bip01_L_Finger0Nub
                      {
                        OFFSET 6.57562 0 0
                        CHANNELS 6 Xposition Yposition Zposition Zrotation Xrotation Yrotation
                        End Site
                        {
                          OFFSET 0 0 0
                        }
                      }
                    }
                  }
                }
              }
            }
            JOINT Bip01_Neck1
            {
              OFFSET 4.19352 -0.00332451 0
              CHANNELS 6 Xposition Yposition Zposition Zrotation Xrotation Yrotation
              JOINT Bip01_Head
              {
                OFFSET 4.17604 0.298252 0
                CHANNELS 6 Xposition Yposition Zposition Zrotation Xrotation Yrotation
                JOINT BN_Eye_R_01
                {
                  OFFSET 6.53258 -3.90694 -2.55361
                  CHANNELS 6 Xposition Yposition Zposition Zrotation Xrotation Yrotation
                  End Site
                  {
                    OFFSET 0 0 0
                  }
                }
                JOINT BN_Eye_L_01
                {
                  OFFSET 6.5326 -3.90694 2.55371
                  CHANNELS 6 Xposition Yposition Zposition Zrotation Xrotation Yrotation
                  End Site
                  {
                    OFFSET 0 0 0
                  }
                }
                JOINT BN_Ear_R_01
                {
                  OFFSET 1.75934 -4.1584 -4.45634
                  CHANNELS 6 Xposition Yposition Zposition Zrotation Xrotation Yrotation
                  End Site
                  {
                    OFFSET 0 0 0
                  }
                }
                JOINT BN_Ear_L_01
                {
                  OFFSET 1.75933 -4.15841 4.45616
                  CHANNELS 6 Xposition Yposition Zposition Zrotation Xrotation Yrotation
                  End Site
                  {
                    OFFSET 0 0 0
                  }
                }
                JOINT BN_Beard_L_01
                {
                  OFFSET 11.2964 -1.06183 2.32054
                  CHANNELS 6 Xposition Yposition Zposition Zrotation Xrotation Yrotation
                  End Site
                  {
                    OFFSET 0 0 0
                  }
                }
                JOINT BN_Beard_R_01
                {
                  OFFSET 11.2964 -1.06182 -2.32036
                  CHANNELS 6 Xposition Yposition Zposition Zrotation Xrotation Yrotation
                  End Site
                  {
                    OFFSET 0 0 0
                  }
                }
                JOINT BN_Mouth_0
                {
                  OFFSET 1.3149 1.30001 0
                  CHANNELS 6 Xposition Yposition Zposition Zrotation Xrotation Yrotation
                  End Site
                  {
                    OFFSET 0 0 0
                  }
                }
                JOINT Bip01_HeadNub
                {
                  OFFSET 12.6869 0 0
                  CHANNELS 6 Xposition Yposition Zposition Zrotation Xrotation Yrotation
                  End Site
                  {
                    OFFSET 0 0 0
                  }
                }
              }
            }
          }
        }
      }
    }
  }
}
MOTION
Frames:	4
Frame Time:	0.0333333
-21.6997 31.156 0 -180 -90 -90 0 8.52651e-014 0 -89.9998 -0.387624 -89.9972 -7.25225 -1.74978 1.45519e-011 -62.1234 -6.3134 174.556 15.788 -7.10543e-015 -0.000508308 -21.0701 2.61107 9.51101 16.0015 -7.10543e-015 -0.000591278 -27.3362 -5.0495 15.9468 16.1689 -1.90735e-006 -0.000587463 -9.065 -11.1107 21.9012 6.4267 2.66607 -0.00010922 -4.65251 -4.30287e-011 -2.30169e-011 6.12662 8.45826 -3.27418e-011 -88.9944 -0.0323334 -179.967 -6.19019 -3.17809 -5.42739 -110.462 1.65025 177.347 13.6591 9.53674e-007 -4.76837e-007 -60.933 4.81922e-006 8.84626e-006 9.07515 -1.90735e-006 4.76837e-007 50.0852 -0.00317185 0.00146532 8.13855 0 0.00115347 -12.9035 0.361622 2.96589 3.79727 6.30092 0.00108528 89.9962 5.98693e-009 -5.1024e-009 0.838764 7.45058e-009 -8.88178e-016 6.37698e-010 5.97742e-009 -1.78151e-009 -6.19012 -3.17809 5.42737 -89.3993 15.9071 -178.366 13.6591 1.90735e-006 0 -53.6435 5.93575e-006 9.0412e-006 9.07516 -1.90735e-006 -9.53674e-007 51.3856 7.28678e-006 -7.48343e-006 8.13855 0 0 -0.520452 -14.3372 -0.943119 3.79736 6.30085 -1.90735e-006 89.9972 0.000762627 -30.2982 0.838766 -2.98023e-008 0 -179.96 -6.30031e-005 4.46671e-005 12.1713 -0.0104313 -7.63976e-011 9.79699 9.96796e-013 4.4807e-011 -0.157495 5.09007 -6.54008 -92.7422 -8.95464e-005 -167.983 -0.1575 5.09007 6.54 87.255 -0.000388654 12.0139 8.29709 8.50413 3.63798e-011 -91.651 -0.0334015 -179.968 13.2796 -0.00996971 -9.09495e-011 -11.9892 7.71854e-006 1.18806e-005 12.4881 -6.66637 -5.09317e-011 -23.0225 -1.59246e-005 -6.76701e-006 -6.16424 -5.05314 -1.17794 -157.025 -51.3379 102.648 13.2557 1.90735e-006 0 49.4065 47.0088 -107.081 12.8897 4.76837e-007 -3.57628e-007 -25.2255 -1.551e-005 -7.75218e-006 11.2622 0 -1.19209e-007 -118.418 75.5545 98.3996 3.98015 -0.208661 -0.0949755 -3.13094 0.765067 -72.2373 6.57561 -1.19209e-007 -2.38419e-007 179.96 1.72754e-005 4.4627e-005 -6.16424 -5.05314 1.17789 -157.03 49.0723 -103.15 13.2557 -1.90735e-006 0 61.6063 -59.1387 119.545 12.8897 2.86102e-006 -2.38419e-007 -32.3574 4.26942e-006 1.48306e-006 11.2622 -1.90735e-006 -1.19209e-007 -130.524 -80.6651 -122.941 3.98015 -0.208664 0.0949726 -12.3295 0.661869 66.0309 6.57562 -1.19209e-007 0 -9.00963e-009 -5.58797e-008 1.22227e-008 4.19292 -0.0032177 -1.20053e-010 -15.6459 9.64681e-006 2.7017e-006 4.17603 0.298255 1.16415e-010 63.8824 0.556162 -0.0994668 6.53259 -3.90693 -2.55361 133.025 18.1401 163.594 6.5326 -3.90696 2.55371 -46.9761 18.1112 -16.4184 1.75934 -4.1584 -4.45634 24.7931 -39.7306 142.462 1.75932 -4.15841 4.45617 -155.196 -39.7317 -37.5282 11.2964 -1.06183 2.32054 151.28 -2.12725 -89.9983 11.2964 -1.06182 -2.32035 -28.7078 -2.13818 89.9962 1.31489 1.3 -2.98023e-008 -175.737 -0.0430145 -179.998 12.6869 7.10543e-015 5.55112e-017 -6.85119e-007 2.00305e-008 -8.59426e-010 
-21.709 31.1433 -5.82284e-010 -180 -90 -90 0 8.52651e-014 0 -89.9987 -0.220865 -89.9443 -7.25225 -1.74978 1.45518e-011 -62.0011 -6.31831 174.445 15.788 -7.10543e-015 -0.000508308 -21.0835 2.65457 9.06645 16.0015 1.84741e-013 -0.000591278 -27.4269 -5.02699 16.2952 16.1689 -1.90735e-006 -0.000587463 -9.1537 -10.5888 23.1975 6.41932 2.68422 0.00549023 -4.49275 0.00382789 -0.0487167 6.12662 8.45826 -3.27409e-011 -88.7122 -0.0318741 -179.442 -6.19447 -3.17981 -5.42739 -110.519 1.65411 177.346 13.6591 9.53674e-007 -4.76837e-007 -61.0338 4.80366e-006 8.85471e-006 9.07515 -1.90735e-006 4.76837e-007 50.1328 -0.00226894 0.00222101 8.13855 2.23821e-013 0.00115347 -12.9162 0.360965 2.96597 3.79727 6.30092 0.00108528 89.9939 5.98672e-009 -5.10225e-009 0.838764 7.45058e-009 -1.77636e-015 6.37698e-010 5.97742e-009 -1.78151e-009 -6.18439 -3.17919 5.42737 -89.4314 15.9062 -178.354 13.6591 1.90735e-006 0 -53.7639 5.27359e-006 9.52779e-006 9.07516 -1.90735e-006 -9.53674e-007 51.4814 6.29732e-006 -8.2723e-006 8.13855 -3.55271e-015 0 -0.513013 -14.3374 -0.934739 3.79736 6.30085 -1.90724e-006 89.9275 0.000783711 -30.2982 0.838766 -2.98023e-008 0 -179.96 -6.30031e-005 4.46671e-005 12.1713 -0.0104313 -7.63975e-011 9.82134 1.01867e-012 4.48072e-011 -0.157495 5.09007 -6.54008 -92.5432 0.0502973 -167.372 -0.1575 5.09007 6.54 87.5481 0.0813275 12.36 8.29709 8.50413 3.63826e-011 -91.4564 0.0459275 -179.547 13.2796 -0.00996971 -9.09495e-011 -11.9795 7.72054e-006 1.18793e-005 12.4881 -6.66637 -5.09297e-011 -23.0225 -1.59246e-005 -6.76701e-006 -6.16424 -5.05314 -1.17794 -157.028 -51.3398 102.664 13.2557 1.90735e-006 3.55271e-015 49.3911 46.9576 -107.073 12.8897 4.76837e-007 -3.57628e-007 -25.3865 -1.97823e-005 1.2547e-006 11.2622 -1.77636e-014 -1.19209e-007 -118.302 75.552 98.3859 3.98015 -0.208661 -0.0949755 -3.12994 0.769182 -72.3126 6.57561 -1.19209e-007 -2.38419e-007 179.96 1.72754e-005 4.4627e-005 -6.16424 -5.05314 1.17789 -157.03 49.0723 -103.15 13.2557 -1.90735e-006 1.06581e-014 61.5355 -59.091 119.481 12.8897 2.86102e-006 -2.38419e-007 -32.5827 -1.124e-006 9.93554e-006 11.2622 -1.90735e-006 -1.19209e-007 -130.366 -80.6699 -122.888 3.98015 -0.208664 0.0949726 -12.3394 0.668061 65.9935 6.57562 -1.19209e-007 2.66453e-015 -9.00963e-009 -5.58797e-008 1.22227e-008 4.19292 -0.0032177 -1.20053e-010 -15.8457 9.63733e-006 2.73533e-006 4.17603 0.298255 1.16415e-010 63.8415 0.541891 -0.106114 6.53259 -3.90693 -2.55361 133.025 18.1401 163.594 6.5326 -3.90696 2.55371 -46.9761 18.1112 -16.4184 1.75934 -4.1584 -4.45634 24.7958 -39.7542 142.978 1.75932 -4.15841 4.45617 -155.191 -39.7554 -37.0097 11.2964 -1.06183 2.32054 151.28 -2.17506 -90.0559 11.2964 -1.06182 -2.32035 -28.7058 -2.21591 90.0489 1.31489 1.3 -2.98023e-008 -175.647 -0.0422821 -179.998 12.6869 -7.10543e-015 5.55112e-017 -6.85119e-007 2.00305e-008 -8.59426e-010 
-21.7181 31.1309 -1.15246e-009 -180 -90 -90 0 8.52651e-014 0 -90.0016 -0.0282765 -89.8954 -7.25225 -1.74978 1.45515e-011 -61.8619 -6.32304 174.35 15.788 -7.10543e-015 -0.000508308 -21.1015 2.70687 8.53485 16.0015 3.76588e-013 -0.000591278 -27.5123 -5.00075 16.6389 16.1689 -1.90735e-006 -0.000587463 -9.42208 -9.89943 24.4679 6.41027 2.70581 0.011778 -4.32461 0.00787943 -0.104194 6.12662 8.45826 -3.27405e-011 -88.4356 -0.0289408 -178.927 -6.19866 -3.18149 -5.42739 -110.563 1.63401 177.364 13.6591 9.53674e-007 -4.76837e-007 -61.1393 4.78735e-006 8.86353e-006 9.07515 -1.90735e-006 4.76837e-007 50.2197 -0.00202132 0.00242781 8.13855 3.90799e-013 0.00115347 -12.9286 0.360321 2.96605 3.79727 6.30092 0.00108528 89.9619 5.988e-009 -5.1013e-009 0.838764 7.45058e-009 8.88178e-016 6.37697e-010 5.97742e-009 -1.78151e-009 -6.17879 -3.18027 5.42737 -89.4555 15.9056 -178.344 13.6591 1.90735e-006 3.55271e-015 -53.9014 5.89669e-006 9.0725e-006 9.07516 -1.90735e-006 -9.53674e-007 51.5751 6.15889e-006 -8.38123e-006 8.13855 -3.55271e-015 1.77636e-015 -0.505721 -14.3375 -0.926528 3.79736 6.30085 -1.90699e-006 89.8592 0.0007712 -30.2983 0.838766 -2.98023e-008 0 -179.96 -6.30031e-005 4.46671e-005 12.1713 -0.0104313 -7.63976e-011 9.85295 1.04321e-012 4.48045e-011 -0.157495 5.09007 -6.54008 -92.3486 0.10175 -166.772 -0.1575 5.09007 6.54 87.835 0.16315 12.6991 8.29709 8.50413 3.6382e-011 -91.2663 0.125062 -179.134 13.2796 -0.00996971 -9.09495e-011 -11.9507 7.72651e-006 1.18754e-005 12.4881 -6.66637 -5.09321e-011 -23.0225 -1.59246e-005 -6.76701e-006 -6.16424 -5.05314 -1.17794 -157.03 -51.3416 102.681 13.2557 1.90735e-006 0 49.3759 46.9074 -107.065 12.8897 4.76837e-007 -3.57628e-007 -25.5719 -1.97855e-005 1.19065e-006 11.2622 -8.88178e-015 -1.19209e-007 -118.189 75.5496 98.3723 3.98015 -0.208661 -0.0949755 -3.12894 0.773214 -72.3863 6.57561 -1.19209e-007 -2.38419e-007 179.96 1.72754e-005 4.4627e-005 -6.16424 -5.05314 1.17789 -157.03 49.0723 -103.15 13.2557 -1.90735e-006 -1.06581e-014 61.4664 -59.0441 119.42 12.8897 2.86102e-006 -2.38419e-007 -32.8089 -1.15602e-006 9.92547e-006 11.2622 -1.90735e-006 -1.19209e-007 -130.219 -80.6836 -122.788 3.98015 -0.208664 0.0949726 -12.3675 0.683312 65.909 6.57562 -1.19209e-007 1.33227e-015 -9.00963e-009 -5.58797e-008 1.22227e-008 4.19292 -0.0032177 -1.20053e-010 -16.0437 9.62782e-006 2.7686e-006 4.17603 0.298255 1.16415e-010 63.7879 0.527955 -0.112516 6.53259 -3.90693 -2.55361 133.025 18.1401 163.594 6.5326 -3.90696 2.55371 -46.9761 18.1112 -16.4185 1.75934 -4.1584 -4.45634 24.7987 -39.7773 143.485 1.75932 -4.15841 4.45617 -155.187 -39.7787 -36.5012 11.2964 -1.06183 2.32054 151.28 -2.22191 -90.1123 11.2964 -1.06182 -2.32035 -28.7036 -2.2922 90.1006 1.31489 1.3 -2.98023e-008 -175.559 -0.0415497 -179.998 12.6869 -7.10543e-015 -5.55112e-017 -6.85119e-007 2.00305e-008 -8.59426e-010 
-21.7313 31.1115 -1.99861e-009 -180 -90 -90 0 8.52651e-014 0 -89.993 0.182968 -89.8293 -7.25225 -1.74978 1.45519e-011 -61.7035 -6.32866 174.27 15.788 0 -0.000508308 -21.1199 2.76737 7.91407 16.0015 5.25802e-013 -0.000591278 -27.5974 -4.97311 16.9874 16.1689 -1.90735e-006 -0.000587463 -9.69834 -9.2195 25.7514 6.40047 2.72899 0.0184175 -4.14543 0.0117997 -0.162804 6.12662 8.45826 -3.27401e-011 -88.1561 -0.0234437 -178.407 -6.20242 -3.18582 -5.42739 -110.601 1.65799 177.35 13.6591 9.53674e-007 -4.76837e-007 -61.2648 4.76794e-006 8.87398e-006 9.07515 -1.90735e-006 4.76837e-007 50.3215 -0.002017 0.0024314 8.13855 7.60281e-013 0.00115347 -12.9405 0.359707 2.96613 3.79727 6.30092 0.00108528 89.9261 5.99265e-009 -5.09552e-009 0.838764 7.45058e-009 -2.66453e-015 6.37698e-010 5.97742e-009 -1.78151e-009 -6.17069 -3.18402 5.42737 -89.4773 15.905 -178.333 13.6591 1.90735e-006 -3.55271e-015 -54.0581 -2.2374e-006 1.49713e-005 9.07516 -1.90735e-006 -9.53674e-007 51.7164 1.40006e-005 -2.18962e-006 8.13855 0 -3.55271e-015 -0.498864 -14.3376 -0.918874 3.79736 6.30085 -1.90688e-006 89.7903 0.000748034 -30.2984 0.838766 -2.98023e-008 -2.66453e-015 -179.96 -6.30031e-005 4.46671e-005 12.1713 -0.0104313 -7.63976e-011 9.88743 1.07006e-012 4.48025e-011 -0.157495 5.09007 -6.54008 -92.1526 0.155778 -166.167 -0.1575 5.09007 6.54 88.1243 0.247514 13.041 8.29709 8.50413 3.63821e-011 -91.0749 0.206385 -178.718 13.2796 -0.00996971 -9.09495e-011 -11.9059 7.73579e-006 1.18694e-005 12.4881 -6.66637 -5.09305e-011 -23.0225 -1.59246e-005 -6.76701e-006 -6.16424 -5.05314 -1.17794 -157.033 -51.3435 102.697 13.2557 1.90735e-006 -3.55271e-015 49.361 46.8559 -107.058 12.8897 4.76837e-007 -3.57628e-007 -25.7962 -1.54297e-005 -7.90659e-006 11.2622 0 -1.19209e-007 -118.032 75.5474 98.3609 3.98015 -0.208661 -0.0949755 -3.12781 0.777803 -72.4703 6.57561 -1.19209e-007 -2.38419e-007 179.96 1.72754e-005 4.4627e-005 -6.16424 -5.05314 1.17789 -157.03 49.0724 -103.15 13.2557 -1.90735e-006 1.42109e-014 61.4046 -59.0141 119.363 12.8897 2.86102e-006 -2.38419e-007 -33.0395 4.27357e-006 1.51688e-006 11.2622 -1.90735e-006 -1.19209e-007 -130.071 -80.7161 -122.637 3.98015 -0.208664 0.0949726 -12.4086 0.706027 65.7824 6.57562 -1.19209e-007 0 -9.00963e-009 -5.58797e-008 1.22227e-008 4.19292 -0.0032177 -1.20053e-010 -16.2444 9.61806e-006 2.80231e-006 4.17603 0.298255 1.16415e-010 63.7147 0.507476 -0.122027 6.53259 -3.90693 -2.55361 133.025 18.1402 163.594 6.5326 -3.90696 2.55371 -46.9761 18.1111 -16.4185 1.75934 -4.1584 -4.45634 24.8018 -39.8006 143.997 1.75932 -4.15841 4.45617 -155.182 -39.8021 -35.9875 11.2964 -1.06183 2.32054 151.28 -2.26908 -90.1693 11.2964 -1.06182 -2.32035 -28.7014 -2.36921 90.1528 1.31489 1.3 -2.98022e-008 -175.47 -0.0408173 -179.998 12.6869 -2.13163e-014 1.11022e-016 -6.85119e-007 2.00305e-008 -8.59426e-010 
